<?xml version="1.0" encoding="utf-8"?>
<!-- Generator: Adobe Illustrator 27.8.1, SVG Export Plug-In . SVG Version: 6.00 Build 0)  -->
<svg version="1.1" id="Layer_1" xmlns="http://www.w3.org/2000/svg" xmlns:xlink="http://www.w3.org/1999/xlink" x="0px" y="0px"
	 viewBox="0 0 531.2 750.4" style="enable-background:new 0 0 531.2 750.4;" xml:space="preserve" fill="#548e9b" stroke="#548e9b">
<g>
	<defs>
		<rect id="SVGID_1_" x="-1318" y="-133.7" width="1024" height="1024"/>
	</defs>
	<clipPath id="SVGID_00000176015818869450414550000015504930465116209289_">
		<use xlink:href="#SVGID_1_"  style="overflow:visible;"/>
	</clipPath>
	<g style="clip-path:url(#SVGID_00000176015818869450414550000015504930465116209289_);">
		<path class="st1" d="M-829.8,286.5c-1.4,0.1-1.4-0.1-0.1-0.6c18-6.8,35.5-14.8,52.6-24c39.1-21.1,74.3-50.7,103-86
			c16.2-19.9,31.1-41.6,44.6-65.1c5.1-8.8,10.6-18.8,16.4-30.1c0-0.1,0-0.2-0.1-0.2h0c-0.1,0-0.1,0-0.2,0c-2.3,3.3-4.8,6.8-7.3,10.3
			c-25,34.2-54.5,63.4-88.6,87.8c-30.3,21.6-63.9,40.4-100.9,56.4c-27.2,11.7-55.3,21.7-79.7,38.3c-17.7,12-33.2,27.2-46.6,45.8
			c-5.8,8-11.7,16.4-17.6,25.1c-0.8,1.1-1.1,1-1.1-0.4c0-0.1,0.1-0.4,0.4-1.2c5.9-16,13.6-31.6,23.1-46.7c12.7-20.3,29-37.5,49-51.6
			c27.6-19.5,57.9-34.4,85.9-52.6c25.5-16.7,44.4-38.3,56.6-64.8c13.8-29.9,16.8-61.6,16.2-95.2c-0.2-9.4-0.6-18.8-1.4-28.3
			c-0.1-0.9-0.1-0.9-0.2,0c-1.6,21.5-5,42.4-10.1,62.5c-5.7,22.2-16.7,40.4-33.2,55.4c-8,7.2-16.2,13.5-24.7,19
			c-21.5,13.8-42.7,26.8-64.7,42c-13.6,9.5-26.4,19.4-38.4,29.9c-0.2,0.1-0.3,0.2-0.5,0.1c-0.2-0.1-0.2-0.2-0.2-0.4
			c2-7.6,4.1-15.2,7.3-22.4c7-15.9,15.6-29.7,25.3-44.1c0.1-0.1,0.1-0.2-0.1-0.3h0c-0.1-0.1-0.2-0.1-0.2,0
			c-6.8,7.7-13.9,15.1-21.6,21.9c-5.3,4.6-10.4,9.1-15.4,13.5c-14.4,12.7-27.3,26.2-38.8,40.6c-13.9,17.4-24.7,37-30.5,59.1
			c-0.3,1.2-0.8,2.2-1.6,3c-13.1,14.8-22.8,31-28.1,50.2c-0.4,1.6-0.9,2.8-0.2,4.3c4.4,10.3,9.5,20.6,15.2,30.7
			c0.2,0.4,0.2,0.9-0.2,1.2c-7.8,7.9-16.5,14.1-25.9,19.6c-0.6,0.4-1.1,1-1.2,1.7c-4.3,23.7-26.6,43.2-47.5,54.5
			c-0.3,0.2-0.4,0.6-0.3,0.9c0,0.1,0.1,0.1,0.1,0.2c6.2,5.9,12.3,11.7,18.2,17.3c1.4,1.3,2.4,2.8,3,4.6c4.2,11.2,9,20.9,17.4,29.5
			c0.4,0.4,0.9,0.4,1.3,0.1l58.3-40.5c0.2-0.1,0.4-0.1,0.6,0l28.1,15.4c0.8,0.4,1,0.2,0.7-0.6l-13.8-32.2c-0.3-0.6-0.1-1.3,0.4-1.8
			c10.4-9,21-18.2,32.7-25.5c6.5-4,13.3-6.9,20.5-8.6c11.9-2.8,22.9-1.4,32.7,4.2c5.6,3.2,11.4,7,17.4,11.5c0.2,0.2,0.3,0.5,0.1,0.7
			c0,0.1-0.1,0.1-0.2,0.1c-4.1,2.4-8,5-12,7.9c-29.7,21.9-55.2,50.3-75.8,81c-2.8,4.2-5.5,8.6-8,13.1c-0.2,0.3-0.6,0.4-0.9,0.3
			c-0.1,0-0.1-0.1-0.1-0.1l-21.1-19.8c-0.4-0.4-0.6-0.3-0.5,0.3l4.4,26.7c0.1,0.4-0.2,0.8-0.7,0.9c0,0,0,0,0,0
			c-3.5,0.5-7.2,1.1-11.1,1.9c-1.4,0.3-2.5-0.1-3.4-1c-5.1-5.3-10.6-10.9-16.5-16.6c-1.7-1.7-3.4-3.5-5.2-5.6
			c-0.2-0.3-0.6-0.5-0.9-0.6c-0.5-0.1-0.6,0-0.4,0.5l10.3,23.9c0.1,0.3,0,0.5-0.3,0.7c-0.1,0-0.1,0-0.2,0l-6.7,0.6
			c-0.8,0.1-0.9,0.4-0.4,0.9l21.7,23.4c0.6,0.7,1.4,0.9,2.2,0.9l36.4-3c0.5,0,0.9-0.3,1.1-0.8c23.1-49.3,59.1-96,113.4-110.9
			c15.1-4.1,30.7-6.4,46.7-6.7c0.9,0,1-0.3,0.2-0.8l-48.3-33.4c-0.9-0.6-0.8-1,0.3-1.1c0.4,0,0.7-0.1,1.1-0.2
			c35.5-6.7,70.6-13.3,105.3-19.8c1.9-0.4,4.1-0.7,6.4-1.1c0.8-0.1,0.9-0.4,0.2-0.9l-84.9-54.3c-0.2-0.1-0.3-0.4-0.1-0.6
			c0,0,0.1-0.1,0.1-0.1l67.6-54.1c1-0.8,0.8-1-0.3-0.7C-759.1,279.9-794.5,284.9-829.8,286.5"/>
		<path class="st1" d="M-626.1,232c26.5,2,52.6,6.3,78.5,12.9c0.5,0.1,0.5,0,0.1-0.2c-1-0.7-2.1-1.4-3.1-2
			c-31.7-18.1-63.2-36-94.6-53.9c-0.5-0.3-1.2-0.1-1.5,0.4l-37.1,58.3c-0.2,0.2-0.1,0.5,0.1,0.7c42.6,29.4,73.5,72.7,92.1,121.3
			c15.5,40.5,21.2,82.7,10.7,123.8c-0.5,1.9-1,3.8-1.5,5.6c-0.3,1.1-0.2,1.2,0.3,0.1c5-10.8,9.7-22.2,14.1-34.2
			c4.9-13.3,8.8-26.4,11.5-39.3c1.4-6.7,2-13.4,2.2-20.3c0.7-28.5-6.3-56-17.9-82.1c-0.2-0.4-0.1-0.6,0.4-0.4c0.3,0.1,0.6,0.3,1,0.6
			c13.8,10.9,25.6,24.2,35.5,39.8c0.7,1.1,0.8,1.1,0.4-0.2c-9.8-28.1-20.8-56.3-38.1-80.7c-14.1-19.7-31.8-36.4-53.3-50
			C-626.9,232.1-626.8,231.9-626.1,232"/>
		<path class="st1" d="M-645.2,505.6c0.1-1.1,0.3-1.1,0.8-0.1c11.7,25.4,8.4,55.5-3.5,80.4c-1.7,3.4-3.4,6.8-5.2,10
			c-1,1.7-0.8,1.9,0.6,0.4c38.7-41.2,54.7-98.2,49.3-154c-1.8-18.3-5.3-36-11.6-53.5c-6.4-17.8-16.1-32.7-29-44.7
			c-12.6-11.8-27.4-20.3-43.8-26.7c-8.3-3.3-17.1-6.1-26.3-8.3c-1.1-0.3-1.2-0.1-0.2,0.5c23.4,14.1,43.4,34.5,53.3,60
			c11,28.4,10.9,60.7,5.1,90.4c-5.5,28-19,52.4-38.8,73c-10.9,11.4-23.3,22-37.3,32c-7.7,5.5-15.7,11.1-23.9,16.8
			c-39.5,27.5-67.9,63.8-85.2,108.9c-6.8,17.7-11.9,36.3-15.4,55.7c-0.2,1,0,1.1,0.4,0.1c16.1-34.5,40.5-63.9,69.7-88.2
			c22.3-18.6,45.6-34.4,68.9-50.8c7.7-5.4,16-11.7,24.7-18.9c9.9-8.2,18.4-16.7,25.4-25.7C-653.9,546-646.6,526.9-645.2,505.6"/>
		<path class="st1" d="M-821.2,607.7c-0.4,0.8-0.8,1.6-1.3,2.3c0,0.1,0,0.1,0,0.1l0.3,0.1c0.1,0,0.1,0,0.2-0.1
			c4.9-6.7,9.6-12.3,14-16.8c10-10.2,21.4-20.2,34.3-29.8c7.5-5.6,22.5-16.4,45-32.4c3.9-2.8,7.8-5.7,11.8-8.8
			c9.6-7.5,15.8-11.9,20.5-20c8.7-15.3,13.4-31.2,13.9-47.8c0.4-14.8-2.4-30.5-6.4-44.5c-0.1-0.4-0.4-0.6-0.8-0.5l-29.9,5.4
			c-0.2,0-0.3,0.2-0.3,0.3c0.1,17.6-0.8,35-4.8,51.9c-5.3,22.3-17.4,40.7-32.2,57.5c-13.4,15.2-27.5,30.2-40.2,46.4
			C-806.4,582.4-814.4,594.6-821.2,607.7"/>
		<path class="st1" d="M-928.5,371.4c11.4,4.7,23.1,6.8,34.8,6.3c28.9-1.2,40.3-22.2,49.9-46.2c0.4-1,1.1-1.8,2.1-2.3
			c8.6-4.5,17.1-9.3,25.5-14.4c0.9-0.6,0.8-0.8-0.2-0.8c-17,0.1-35.2,1.3-54.5,3.5c-2.8,0.3-5.2,1.2-7.3,2.6
			c-12.6,8.6-25,20.5-35.6,32c-0.6,0.7-1.5,1.1-2.4,1.2c-9.9,1.4-20.1,3-30.5,4.8c-1.7,0.3-3.1,1-4.2,2c-1.8,1.7-3.7,3.8-5.9,6.1
			c-0.4,0.5-0.7,1.1-0.7,1.8c-0.1,6.1-0.2,12.1-0.3,18c0,1.9-0.5,3.6-1.3,5c-4.2,7.1-12.6,20.8-25.1,41.3c-0.1,0.2-0.1,0.4,0.1,0.5
			l0.2,0.2c0,0,0.1,0,0.1,0c5.2-6.7,10.3-13.5,15.5-20.4c6-8,12-15.6,18-22.7c6-7.1,13-13.2,20.9-18.3
			C-929.1,371.3-928.8,371.3-928.5,371.4"/>
		<path class="st1" d="M-1005.6,464.6c0.1-0.1,0.1-0.2,0.1-0.3l-3.5-18.3c0-0.2-0.2-0.3-0.4-0.3c-0.1,0-0.1,0-0.2,0.1l-14.8,14.7
			c-0.1,0.1-0.1,0.2-0.1,0.3l3,16.4c0,0.2,0.2,0.3,0.4,0.3c0.1,0,0.1,0,0.2-0.1L-1005.6,464.6z"/>
	</g>
</g>
<path class="st2" d="M-829.8,286.5c35.3-1.6,70.7-6.6,105.5-14.9c1.2-0.3,1.3,0,0.3,0.7l-67.6,54.1c-0.2,0.2-0.2,0.4-0.1,0.6
	c0,0,0.1,0.1,0.1,0.1l84.9,54.3c0.7,0.4,0.6,0.7-0.2,0.9c-2.3,0.4-4.4,0.7-6.4,1.1c-34.7,6.5-69.8,13.1-105.3,19.8
	c-0.4,0.1-0.7,0.1-1.1,0.2c-1.1,0.1-1.2,0.5-0.3,1.1l48.3,33.4c0.7,0.5,0.7,0.8-0.2,0.8c-16,0.3-31.6,2.6-46.7,6.7
	c-54.3,14.9-90.3,61.6-113.4,110.9c-0.2,0.4-0.6,0.7-1.1,0.8l-36.4,3c-0.9,0.1-1.6-0.2-2.2-0.9l-21.7-23.4c-0.5-0.6-0.4-0.9,0.4-0.9
	l6.7-0.6c0.3,0,0.5-0.3,0.5-0.5c0-0.1,0-0.1,0-0.2l-10.3-23.9c-0.2-0.4-0.1-0.6,0.4-0.5c0.4,0.1,0.7,0.3,0.9,0.6
	c1.7,2.1,3.5,3.9,5.2,5.6c5.9,5.7,11.4,11.2,16.5,16.6c0.9,1,2.1,1.3,3.4,1c3.9-0.8,7.6-1.4,11.1-1.9c0.4-0.1,0.7-0.5,0.7-0.9
	c0,0,0,0,0,0l-4.4-26.7c-0.1-0.6,0.1-0.7,0.5-0.3l21.1,19.8c0.3,0.2,0.7,0.2,0.9,0c0,0,0.1-0.1,0.1-0.1c2.5-4.5,5.2-8.9,8-13.1
	c20.6-30.7,46.1-59.1,75.8-81c3.9-2.9,7.9-5.5,12-7.9c0.3-0.1,0.3-0.5,0.2-0.7c0-0.1-0.1-0.1-0.1-0.2c-6.1-4.5-11.9-8.4-17.4-11.5
	c-9.9-5.6-20.8-7-32.7-4.2c-7.2,1.7-14,4.6-20.5,8.6c-11.7,7.3-22.2,16.4-32.7,25.5c-0.5,0.4-0.7,1.1-0.4,1.8l13.8,32.2
	c0.4,0.9,0.1,1.1-0.7,0.6l-28.1-15.4c-0.2-0.1-0.4-0.1-0.6,0l-58.3,40.5c-0.4,0.3-1,0.2-1.3-0.1c-8.5-8.6-13.2-18.3-17.4-29.5
	c-0.7-1.8-1.7-3.3-3-4.6c-5.9-5.6-12-11.4-18.2-17.3c-0.3-0.2-0.3-0.6,0-0.9c0-0.1,0.1-0.1,0.2-0.1c20.9-11.3,43.2-30.8,47.5-54.5
	c0.1-0.7,0.6-1.4,1.2-1.7c9.4-5.5,18.1-11.7,25.9-19.6c0.3-0.3,0.4-0.8,0.2-1.2c-5.7-10.1-10.8-20.4-15.2-30.7
	c-0.7-1.6-0.2-2.8,0.2-4.3c5.3-19.2,15-35.4,28.1-50.2c0.7-0.8,1.3-1.8,1.6-3c5.8-22.1,16.6-41.6,30.5-59.1
	c11.5-14.4,24.4-27.9,38.8-40.6c5-4.4,10.1-8.9,15.4-13.5c7.8-6.8,14.8-14.1,21.6-21.9c0.1-0.1,0.2-0.1,0.2,0h0
	c0.1,0.1,0.1,0.2,0.1,0.3c-9.7,14.4-18.4,28.2-25.3,44.1c-3.2,7.2-5.3,14.8-7.3,22.4c0,0.2,0,0.3,0.2,0.4c0.2,0.1,0.4,0.1,0.5-0.1
	c12-10.5,24.8-20.5,38.4-29.9c22-15.3,43.2-28.2,64.7-42c8.5-5.5,16.7-11.8,24.7-19c16.5-14.9,27.5-33.2,33.2-55.4
	c5.2-20.1,8.5-41,10.1-62.5c0.1-0.9,0.1-0.9,0.2,0c0.7,9.4,1.2,18.9,1.4,28.3c0.6,33.6-2.3,65.3-16.2,95.2
	c-12.3,26.5-31.1,48.1-56.6,64.8c-27.9,18.3-58.3,33.1-85.9,52.6c-19.9,14.1-36.3,31.3-49,51.6c-9.4,15.1-17.1,30.7-23.1,46.7
	c-0.3,0.7-0.4,1.1-0.4,1.2c0,1.4,0.4,1.5,1.1,0.4c6-8.8,11.8-17.2,17.6-25.1c13.4-18.5,29-33.8,46.6-45.8
	c24.4-16.6,52.5-26.5,79.7-38.3c37-16,70.7-34.8,100.9-56.4c34.1-24.3,63.6-53.6,88.6-87.8c2.6-3.5,5-6.9,7.3-10.3
	c0.1-0.1,0.1-0.1,0.2,0h0c0.1,0.1,0.1,0.1,0.1,0.2c-5.9,11.2-11.3,21.2-16.4,30.1c-13.5,23.5-28.4,45.2-44.6,65.1
	c-28.7,35.3-63.9,64.9-103,86c-17.1,9.2-34.6,17.2-52.6,24C-831.3,286.4-831.2,286.6-829.8,286.5L-829.8,286.5z M-928.5,371.4
	c11.4,4.7,23.1,6.8,34.8,6.3c28.9-1.2,40.3-22.2,49.9-46.2c0.4-1,1.1-1.8,2.1-2.3c8.6-4.5,17.1-9.3,25.5-14.4
	c0.9-0.6,0.8-0.8-0.2-0.8c-17,0.1-35.2,1.3-54.5,3.5c-2.8,0.3-5.2,1.2-7.3,2.6c-12.6,8.6-25,20.5-35.6,32c-0.6,0.7-1.5,1.1-2.4,1.2
	c-9.9,1.4-20.1,3-30.5,4.8c-1.7,0.3-3.1,1-4.2,2c-1.8,1.7-3.7,3.8-5.9,6.1c-0.4,0.5-0.7,1.1-0.7,1.8c-0.1,6.1-0.2,12.1-0.3,18
	c0,1.9-0.5,3.6-1.3,5c-4.2,7.1-12.6,20.8-25.1,41.3c-0.1,0.2-0.1,0.4,0.1,0.5l0.2,0.2c0,0,0.1,0,0.1,0c5.2-6.7,10.3-13.5,15.5-20.4
	c6-8,12-15.6,18-22.7c6-7.1,13-13.2,20.9-18.3C-929.1,371.3-928.8,371.3-928.5,371.4L-928.5,371.4z M-1005.6,464.6
	c0.1-0.1,0.1-0.2,0.1-0.3l-3.5-18.3c0-0.2-0.2-0.3-0.4-0.3c-0.1,0-0.1,0-0.2,0.1l-14.8,14.7c-0.1,0.1-0.1,0.2-0.1,0.3l3,16.4
	c0,0.2,0.2,0.3,0.4,0.3c0.1,0,0.1,0,0.2-0.1L-1005.6,464.6z"/>
<path class="st2" d="M-626.1,232c-0.7,0-0.7,0.1-0.2,0.5c21.5,13.6,39.2,30.3,53.3,50c17.3,24.3,28.3,52.6,38.1,80.7
	c0.4,1.3,0.3,1.3-0.4,0.2c-9.8-15.6-21.7-28.9-35.5-39.8c-0.4-0.3-0.7-0.5-1-0.6c-0.5-0.2-0.6-0.1-0.4,0.4
	c11.6,26.1,18.6,53.6,17.9,82.1c-0.2,6.8-0.8,13.5-2.2,20.3c-2.7,12.8-6.6,25.9-11.5,39.3c-4.4,12-9.1,23.4-14.1,34.2
	c-0.5,1.1-0.6,1-0.3-0.1c0.5-1.8,1-3.7,1.5-5.6c10.5-41.1,4.8-83.4-10.7-123.9c-18.7-48.6-49.6-91.9-92.1-121.3
	c-0.2-0.2-0.3-0.5-0.1-0.7l37.1-58.3c0.3-0.5,1-0.7,1.5-0.4c31.3,17.9,62.8,35.9,94.6,53.9c1.1,0.6,2.1,1.3,3.1,2
	c0.4,0.3,0.3,0.3-0.1,0.2C-573.5,238.3-599.7,233.9-626.1,232L-626.1,232z"/>
<path class="st2" d="M-645.2,505.6c-1.4,21.2-8.8,40.3-22,57.3c-7,8.9-15.5,17.5-25.4,25.7c-8.7,7.2-17,13.5-24.7,18.9
	c-23.4,16.3-46.6,32.2-68.9,50.8c-29.2,24.3-53.6,53.7-69.7,88.2c-0.4,0.9-0.6,0.9-0.4-0.1c3.5-19.4,8.6-38,15.4-55.7
	c17.3-45.1,45.7-81.4,85.2-108.9c8.2-5.7,16.1-11.3,23.9-16.8c14-10,26.5-20.6,37.3-32c19.8-20.7,33.3-45,38.8-73
	c5.8-29.7,5.9-62-5.1-90.4c-9.9-25.6-30-45.9-53.3-60c-1-0.6-0.9-0.7,0.2-0.5c9.2,2.3,17.9,5,26.3,8.3c16.3,6.5,31.1,15,43.8,26.7
	c13,12,22.6,27,29,44.7c6.3,17.5,9.9,35.2,11.6,53.5c5.4,55.9-10.6,112.8-49.3,154c-1.4,1.5-1.6,1.3-0.6-0.4c1.8-3.2,3.6-6.5,5.2-10
	c12-24.9,15.2-55,3.5-80.4C-644.9,504.5-645.1,504.6-645.2,505.6L-645.2,505.6z"/>
<path class="st2" d="M-821.2,607.7c6.8-13,14.8-25.3,23.8-36.8c12.7-16.2,26.8-31.2,40.2-46.4c14.8-16.7,26.9-35.2,32.2-57.5
	c4-16.9,5-34.3,4.8-51.9c0-0.2,0.1-0.3,0.3-0.3l29.9-5.4c0.4-0.1,0.7,0.2,0.8,0.5c4,14.1,6.8,29.8,6.4,44.5
	c-0.5,16.6-5.1,32.5-13.9,47.8c-4.7,8.2-10.9,12.5-20.5,20c-4,3.1-7.9,6-11.8,8.8c-22.5,16-37.5,26.8-45,32.4
	c-12.9,9.6-24.3,19.6-34.3,29.8c-4.4,4.5-9.1,10.2-14,16.8c0,0.1-0.1,0.1-0.2,0.1l-0.3-0.1c-0.1,0-0.1-0.1,0-0.1
	C-822,609.2-821.6,608.4-821.2,607.7L-821.2,607.7z"/>
<path class="st3" d="M233.7,286.5c35.3-1.6,70.7-6.6,105.5-14.9c1.2-0.3,1.3,0,0.3,0.7l-67.6,54.1c-0.2,0.2-0.2,0.4-0.1,0.6
	c0,0,0.1,0.1,0.1,0.1l84.9,54.3c0.7,0.4,0.6,0.7-0.2,0.9c-2.3,0.4-4.4,0.7-6.4,1.1c-34.7,6.5-69.8,13.1-105.3,19.8
	c-0.4,0.1-0.7,0.1-1.1,0.2c-1.1,0.1-1.2,0.5-0.3,1.1l48.3,33.4c0.7,0.5,0.7,0.8-0.2,0.8c-16,0.3-31.6,2.6-46.7,6.7
	c-54.3,14.9-90.3,61.6-113.4,110.9c-0.2,0.4-0.6,0.7-1.1,0.8l-36.4,3c-0.9,0.1-1.6-0.2-2.2-0.9l-21.7-23.4c-0.5-0.6-0.4-0.9,0.4-0.9
	l6.7-0.6c0.3,0,0.5-0.3,0.5-0.5c0-0.1,0-0.1,0-0.2l-10.3-23.9c-0.2-0.4-0.1-0.6,0.4-0.5c0.4,0.1,0.7,0.3,0.9,0.6
	c1.7,2.1,3.5,3.9,5.2,5.6c5.9,5.7,11.4,11.2,16.5,16.6c0.9,1,2.1,1.3,3.4,1c3.9-0.8,7.6-1.4,11.1-1.9c0.4-0.1,0.7-0.5,0.7-0.9
	c0,0,0,0,0,0l-4.4-26.7c-0.1-0.6,0.1-0.7,0.5-0.3l21.1,19.8c0.3,0.2,0.7,0.2,0.9,0c0,0,0.1-0.1,0.1-0.1c2.5-4.5,5.2-8.9,8-13.1
	c20.6-30.7,46.1-59.1,75.8-81c3.9-2.9,7.9-5.5,12-7.9c0.3-0.1,0.3-0.5,0.2-0.7c0-0.1-0.1-0.1-0.1-0.2c-6.1-4.5-11.9-8.4-17.4-11.5
	c-9.9-5.6-20.8-7-32.7-4.2c-7.2,1.7-14,4.6-20.5,8.6c-11.7,7.3-22.2,16.4-32.7,25.5c-0.5,0.4-0.7,1.1-0.4,1.8l13.8,32.2
	c0.4,0.9,0.1,1.1-0.7,0.6l-28.1-15.4c-0.2-0.1-0.4-0.1-0.6,0L42,498.1c-0.4,0.3-1,0.2-1.3-0.1c-8.5-8.6-13.2-18.3-17.4-29.5
	c-0.7-1.8-1.7-3.3-3-4.6c-5.9-5.6-12-11.4-18.2-17.3c-0.3-0.2-0.3-0.6,0-0.9c0-0.1,0.1-0.1,0.2-0.1c20.9-11.3,43.2-30.8,47.5-54.5
	c0.1-0.7,0.6-1.4,1.2-1.7c9.4-5.5,18.1-11.7,25.9-19.6c0.3-0.3,0.4-0.8,0.2-1.2c-5.7-10.1-10.8-20.4-15.2-30.7
	c-0.7-1.6-0.2-2.8,0.2-4.3c5.3-19.2,15-35.4,28.1-50.2c0.7-0.8,1.3-1.8,1.6-3c5.8-22.1,16.6-41.6,30.5-59.1
	c11.5-14.4,24.4-27.9,38.8-40.6c5-4.4,10.1-8.9,15.4-13.5c7.8-6.8,14.9-14.1,21.6-21.9c0.1-0.1,0.2-0.1,0.2,0h0
	c0.1,0.1,0.1,0.2,0.1,0.3c-9.7,14.4-18.4,28.2-25.3,44.1c-3.2,7.2-5.3,14.8-7.3,22.4c0,0.2,0,0.3,0.2,0.4c0.2,0.1,0.4,0.1,0.5-0.1
	c12-10.5,24.8-20.5,38.4-29.9c22-15.3,43.2-28.2,64.7-42c8.5-5.5,16.7-11.8,24.7-19c16.5-14.9,27.5-33.2,33.2-55.4
	c5.2-20.1,8.5-41,10.1-62.5c0.1-0.9,0.1-0.9,0.2,0c0.7,9.4,1.2,18.9,1.4,28.3c0.6,33.6-2.3,65.3-16.2,95.2
	c-12.3,26.5-31.1,48.1-56.6,64.8c-27.9,18.3-58.3,33.1-85.9,52.6c-19.9,14.1-36.3,31.3-49,51.6c-9.4,15.1-17.1,30.7-23.1,46.7
	c-0.3,0.7-0.4,1.1-0.4,1.2c0,1.4,0.4,1.5,1.1,0.4c6-8.8,11.8-17.2,17.6-25.1c13.4-18.5,29-33.8,46.6-45.8
	c24.4-16.6,52.5-26.5,79.7-38.3c37-16,70.7-34.8,100.9-56.4c34.1-24.3,63.6-53.6,88.6-87.8c2.6-3.5,5-6.9,7.3-10.3
	c0.1-0.1,0.1-0.1,0.2,0h0c0.1,0.1,0.1,0.1,0.1,0.2c-5.9,11.2-11.3,21.2-16.4,30.1c-13.5,23.5-28.4,45.2-44.6,65.1
	c-28.7,35.3-63.9,64.9-103,86c-17.1,9.2-34.6,17.2-52.6,24C232.3,286.4,232.4,286.6,233.7,286.5L233.7,286.5z M135.1,371.4
	c11.4,4.7,23.1,6.8,34.8,6.3c28.9-1.2,40.3-22.2,49.9-46.2c0.4-1,1.1-1.8,2.1-2.3c8.6-4.5,17.1-9.3,25.5-14.4
	c0.9-0.6,0.8-0.8-0.2-0.8c-17,0.1-35.2,1.3-54.5,3.5c-2.8,0.3-5.2,1.2-7.3,2.6c-12.6,8.6-25,20.5-35.6,32c-0.6,0.7-1.5,1.1-2.4,1.2
	c-9.9,1.4-20.1,3-30.5,4.8c-1.7,0.3-3.1,1-4.2,2c-1.8,1.7-3.7,3.8-5.9,6.1c-0.4,0.5-0.7,1.1-0.7,1.8c-0.1,6.1-0.2,12.1-0.3,18
	c0,1.9-0.5,3.6-1.3,5c-4.2,7.1-12.6,20.8-25.1,41.3c-0.1,0.2-0.1,0.4,0.1,0.5l0.2,0.2c0,0,0.1,0,0.1,0c5.2-6.7,10.3-13.5,15.5-20.4
	c6-8,12-15.6,18-22.7c6-7.1,13-13.2,20.9-18.3C134.5,371.3,134.8,371.3,135.1,371.4L135.1,371.4z M58,464.6c0.1-0.1,0.1-0.2,0.1-0.3
	L54.6,446c0-0.2-0.2-0.3-0.4-0.3c-0.1,0-0.1,0-0.2,0.1l-14.8,14.7c-0.1,0.1-0.1,0.2-0.1,0.3l3,16.4c0,0.2,0.2,0.3,0.4,0.3
	c0.1,0,0.1,0,0.2-0.1L58,464.6z"/>
<path class="st3" d="M437.4,232c-0.7,0-0.7,0.1-0.2,0.5c21.5,13.6,39.2,30.3,53.3,50c17.3,24.3,28.3,52.6,38.1,80.7
	c0.4,1.3,0.3,1.3-0.4,0.2c-9.8-15.6-21.7-28.9-35.5-39.8c-0.4-0.3-0.7-0.5-1-0.6c-0.5-0.2-0.6-0.1-0.4,0.4
	c11.6,26.1,18.6,53.6,17.9,82.1c-0.2,6.8-0.8,13.5-2.2,20.3c-2.7,12.8-6.6,25.9-11.5,39.3c-4.4,12-9.1,23.4-14.1,34.2
	c-0.5,1.1-0.6,1-0.3-0.1c0.5-1.8,1-3.7,1.5-5.6c10.5-41.1,4.8-83.4-10.7-123.9c-18.7-48.6-49.6-91.9-92.1-121.3
	c-0.2-0.2-0.3-0.5-0.1-0.7l37.1-58.3c0.3-0.5,1-0.7,1.5-0.4c31.3,17.9,62.8,35.9,94.6,53.9c1.1,0.6,2.1,1.3,3.1,2
	c0.4,0.3,0.3,0.3-0.1,0.2C490.1,238.3,463.9,233.9,437.4,232L437.4,232z"/>
<path class="st3" d="M418.4,505.6c-1.4,21.2-8.8,40.3-22,57.3c-7,8.9-15.5,17.5-25.4,25.7c-8.7,7.2-17,13.5-24.7,18.9
	c-23.4,16.3-46.6,32.2-68.9,50.8c-29.2,24.3-53.6,53.7-69.7,88.2c-0.4,0.9-0.6,0.9-0.4-0.1c3.5-19.4,8.6-38,15.4-55.7
	c17.3-45.1,45.7-81.4,85.2-108.9c8.2-5.7,16.1-11.3,23.9-16.8c14-10,26.5-20.6,37.3-32c19.8-20.7,33.3-45,38.8-73
	c5.8-29.7,5.9-62-5.1-90.4c-9.9-25.6-30-45.9-53.3-60c-1-0.6-0.9-0.7,0.2-0.5c9.2,2.3,17.9,5,26.3,8.3c16.3,6.5,31.1,15,43.8,26.7
	c13,12,22.6,27,29,44.7c6.3,17.5,9.9,35.2,11.6,53.5c5.4,55.9-10.6,112.8-49.3,154c-1.4,1.5-1.6,1.3-0.6-0.4c1.8-3.2,3.6-6.5,5.2-10
	c12-24.9,15.2-55,3.5-80.4C418.7,504.5,418.5,504.6,418.4,505.6L418.4,505.6z"/>
<path class="st3" d="M242.4,607.7c6.8-13,14.8-25.3,23.8-36.8c12.7-16.2,26.8-31.2,40.2-46.4c14.8-16.7,26.9-35.2,32.2-57.5
	c4-16.9,5-34.3,4.8-51.9c0-0.2,0.1-0.3,0.3-0.3l29.9-5.4c0.4-0.1,0.7,0.2,0.8,0.5c4,14.1,6.8,29.8,6.4,44.5
	c-0.5,16.6-5.1,32.5-13.9,47.8c-4.7,8.2-10.9,12.5-20.5,20c-4,3.1-7.9,6-11.8,8.8c-22.5,16-37.5,26.8-45,32.4
	c-12.9,9.6-24.3,19.6-34.3,29.8c-4.4,4.5-9.1,10.2-14,16.8c0,0.1-0.1,0.1-0.2,0.1l-0.3-0.1c-0.1,0-0.1-0.1,0-0.1
	C241.6,609.2,242,608.4,242.4,607.7L242.4,607.7z"/>
</svg>
